<svg viewBox="0 0 611.9 81.4"><title>MODA logo</title><path d="M91.6,4.7,87.4.5H70.8L66.6,4.7,62.4.5H45.8L41.6,4.7V21.3L20.8.5H4.2L0,4.7V63l4.2,4.2H20.8L25,63V46.3L45.8,67.1H62.4l4.2-4.2V29.7L87.4,50.5V63l4.2,4.2h16.6l4.2-4.2V50.5l20.8-20.8v25l12.5,12.5h41.6l12.5-12.5V42.2L195.6,38H174.8v4.2H158.2V25.5h16.6v4.1h20.8l4.2-4.1V13L187.3.5H145.7L133.2,13V4.7L129,.5H112.4l-4.2,4.2V13l-8.3,8.3L91.6,13Z" style="fill:#fff"/><path d="M199.3,2.6a2.67,2.67,0,0,1-2.7,2.6,2.61,2.61,0,0,1-2.7-2.6A2.67,2.67,0,0,1,196.6,0,2.61,2.61,0,0,1,199.3,2.6Zm-4.7,0a2.09,2.09,0,0,0,2,2.1,2,2,0,0,0,2-2,2,2,0,0,0-2-2.1A1.89,1.89,0,0,0,194.6,2.6Zm1.6,1.3h-.6V1.3c.2,0,.6-.1,1-.1a1.69,1.69,0,0,1,.9.2.6.6,0,0,1,.3.6.63.63,0,0,1-.5.6h0c.3.1.4.3.5.6s.1.5.2.6h-.6c-.1-.1-.1-.3-.2-.6s-.2-.4-.5-.4h-.3l-.2,1.1Zm0-1.4h.3c.3,0,.6-.1.6-.4s-.2-.4-.6-.4h-.3v.8Z" style="fill:#fff"/><path d="M248,1.5a28.94,28.94,0,0,1,12.4,2.6,27.19,27.19,0,0,1,9.3,7,30.6,30.6,0,0,1,5.8,10.3,36.82,36.82,0,0,1,2,12.5,40.54,40.54,0,0,1-2,12.6,32.4,32.4,0,0,1-5.8,10.3,27.19,27.19,0,0,1-9.3,7A29.26,29.26,0,0,1,248,66.4a28.94,28.94,0,0,1-12.4-2.6,26,26,0,0,1-9.3-7,32.62,32.62,0,0,1-5.9-10.3,37,37,0,0,1-2-12.6,39.44,39.44,0,0,1,2-12.5,30.81,30.81,0,0,1,5.9-10.3,27.19,27.19,0,0,1,9.3-7A27.83,27.83,0,0,1,248,1.5Zm0,8.8a16.81,16.81,0,0,0-14.4,7.3,23.7,23.7,0,0,0-3.3,7.6,35.76,35.76,0,0,0-1.1,8.7,36.39,36.39,0,0,0,1.1,8.7,23.7,23.7,0,0,0,3.3,7.6,16.73,16.73,0,0,0,5.9,5.3,17.59,17.59,0,0,0,22.9-5.3,23.7,23.7,0,0,0,3.3-7.6,35.76,35.76,0,0,0,1.1-8.7,36.39,36.39,0,0,0-1.1-8.7,23.7,23.7,0,0,0-3.3-7.6,16.73,16.73,0,0,0-5.9-5.3A17.23,17.23,0,0,0,248,10.3Z" style="fill:#fff"/><path d="M286.4,20h9.4v6.1h.2a12.09,12.09,0,0,1,5.8-5.6,19.92,19.92,0,0,1,8.1-1.7,20.44,20.44,0,0,1,9.2,1.9,17.2,17.2,0,0,1,6.5,5.1,23.77,23.77,0,0,1,3.9,7.6,31.21,31.21,0,0,1,1.3,9.3,32.77,32.77,0,0,1-1.2,8.8A23.7,23.7,0,0,1,326,59a17.68,17.68,0,0,1-6,5.2,17.9,17.9,0,0,1-8.6,1.9,20.87,20.87,0,0,1-4.3-.4,22.53,22.53,0,0,1-4.2-1.3,17.22,17.22,0,0,1-3.7-2.2,12.18,12.18,0,0,1-2.8-3.2h-.2V81.4h-9.9V20Zm34.5,22.5a23.31,23.31,0,0,0-.8-5.9,16.93,16.93,0,0,0-2.3-5.1,11.23,11.23,0,0,0-3.9-3.6,10.79,10.79,0,0,0-5.4-1.3c-4.2,0-7.3,1.4-9.4,4.3s-3.2,6.7-3.2,11.5a25.26,25.26,0,0,0,.8,6.3,13.84,13.84,0,0,0,2.5,5,12.28,12.28,0,0,0,3.9,3.3,11.2,11.2,0,0,0,5.3,1.2,10.93,10.93,0,0,0,5.7-1.4,12.18,12.18,0,0,0,3.9-3.6,16.18,16.18,0,0,0,2.2-5A22.24,22.24,0,0,0,320.9,42.5Z" style="fill:#fff"/><path d="M346.8,45a16.79,16.79,0,0,0,.7,5,12,12,0,0,0,2.2,4.2,10.62,10.62,0,0,0,3.7,2.9,12.67,12.67,0,0,0,5.4,1.1,11.6,11.6,0,0,0,7-1.9,10.19,10.19,0,0,0,3.9-5.6h9.4a17.91,17.91,0,0,1-2.7,6.5,19.13,19.13,0,0,1-4.6,4.8,18.56,18.56,0,0,1-6,2.9,23.24,23.24,0,0,1-7,1,25.39,25.39,0,0,1-9.4-1.7,20.17,20.17,0,0,1-6.9-4.9,19.73,19.73,0,0,1-4.2-7.5,29.11,29.11,0,0,1-1.4-9.5,27.57,27.57,0,0,1,1.5-9.1,23,23,0,0,1,4.3-7.5,20.13,20.13,0,0,1,15.8-7.1,19.87,19.87,0,0,1,9.5,2.2,21,21,0,0,1,7,5.9,23.36,23.36,0,0,1,4,8.4,26.63,26.63,0,0,1,.7,9.8H346.8Zm23.1-6.5a13.42,13.42,0,0,0-1-4.5,11.43,11.43,0,0,0-5.8-6.4,9.88,9.88,0,0,0-4.5-1,11.93,11.93,0,0,0-4.7.9,10.14,10.14,0,0,0-3.6,2.5,12.3,12.3,0,0,0-2.4,3.8,14,14,0,0,0-1,4.7Z" style="fill:#fff"/><path d="M387.3,20h9.4v6.6l.2.2a17.52,17.52,0,0,1,5.9-5.9,15.78,15.78,0,0,1,8.1-2.1c4.9,0,8.8,1.3,11.6,3.8s4.2,6.4,4.2,11.4V64.8h-9.9V36.6c-.1-3.5-.9-6.1-2.3-7.7s-3.6-2.4-6.5-2.4a10.63,10.63,0,0,0-4.5.9,9.4,9.4,0,0,0-3.4,2.5,14,14,0,0,0-2.2,3.8,13.89,13.89,0,0,0-.8,4.6V64.7h-9.9V20Z" style="fill:#fff"/><path d="M459.8,2.9c9.5,0,16.9,2.4,22,7.3s7.7,12.2,7.7,22.2a52.1,52.1,0,0,1-1.7,13.8,25.15,25.15,0,0,1-5.4,10.1,24,24,0,0,1-9.3,6.3,38.19,38.19,0,0,1-13.3,2.2H438.6V2.9Zm.7,55c.9,0,2.1-.1,3.5-.2a18.5,18.5,0,0,0,4.4-1,15.62,15.62,0,0,0,4.6-2.4,16.43,16.43,0,0,0,4.1-4.2,24.54,24.54,0,0,0,3-6.7,34.51,34.51,0,0,0,1.2-9.8,42.21,42.21,0,0,0-1.1-9.9,18.71,18.71,0,0,0-3.6-7.5,16.19,16.19,0,0,0-6.4-4.7,24.72,24.72,0,0,0-9.6-1.6H446.7v48Z" style="fill:#fff"/><path d="M538.1,64.6a10,10,0,0,1-5.3,1.1,6.46,6.46,0,0,1-4.6-1.6c-1.1-1.1-1.7-2.8-1.7-5.2a17,17,0,0,1-7.1,5.2,24.89,24.89,0,0,1-8.7,1.6,22.47,22.47,0,0,1-5.8-.7,12.8,12.8,0,0,1-4.7-2.2,11.2,11.2,0,0,1-3.2-3.9,12.76,12.76,0,0,1-1.2-5.8,12.67,12.67,0,0,1,1.3-6.2,11.71,11.71,0,0,1,3.4-3.9,14.79,14.79,0,0,1,4.9-2.3,50.71,50.71,0,0,1,5.6-1.3c2-.4,3.9-.7,5.8-.9a29.38,29.38,0,0,0,4.8-.9,8.47,8.47,0,0,0,3.3-1.6,4.08,4.08,0,0,0,1.2-3.2,7.51,7.51,0,0,0-.9-3.9,7.22,7.22,0,0,0-2.3-2.3,6.71,6.71,0,0,0-3.2-1,21.59,21.59,0,0,0-3.5-.3,15.52,15.52,0,0,0-7.8,1.8c-2.1,1.2-3.2,3.4-3.4,6.7h-7.4a16,16,0,0,1,1.7-7,11.65,11.65,0,0,1,4.2-4.6,18.59,18.59,0,0,1,5.9-2.6,32.39,32.39,0,0,1,7.2-.8,40.32,40.32,0,0,1,6,.4A15.64,15.64,0,0,1,528,21a10.15,10.15,0,0,1,3.9,3.8,11.75,11.75,0,0,1,1.5,6.3v23a17.44,17.44,0,0,0,.3,3.8c.2.8.9,1.2,2,1.2a11.15,11.15,0,0,0,2.3-.3v5.8Zm-12-22.9a8.51,8.51,0,0,1-3.6,1.5c-1.5.3-3.1.6-4.7.8s-3.3.4-5,.7a24.38,24.38,0,0,0-4.5,1.2,8,8,0,0,0-3.2,2.5,7.19,7.19,0,0,0-1.3,4.4,6.17,6.17,0,0,0,.7,3.1,6.06,6.06,0,0,0,1.9,2,8.08,8.08,0,0,0,2.7,1.1,16.86,16.86,0,0,0,3.3.3,16.45,16.45,0,0,0,6.2-1,14.17,14.17,0,0,0,4.2-2.5,9.31,9.31,0,0,0,2.4-3.3,8.8,8.8,0,0,0,.8-3.3V41.7Z" style="fill:#fff"/><path d="M564.1,20v6.5h-8.9V54.3a10.61,10.61,0,0,0,.2,2.1,2,2,0,0,0,.8,1.2,3.78,3.78,0,0,0,1.7.6,22.67,22.67,0,0,0,2.8.1h3.4v6.5h-5.6a23.66,23.66,0,0,1-4.9-.4,7.17,7.17,0,0,1-3.3-1.4,6.69,6.69,0,0,1-1.9-2.9,17,17,0,0,1-.6-5V26.5h-7.6V20h7.6V6.6h7.4V20Z" style="fill:#fff"/><path d="M611.9,64.6a10,10,0,0,1-5.3,1.1,6.46,6.46,0,0,1-4.6-1.6c-1.1-1.1-1.7-2.8-1.7-5.2a17,17,0,0,1-7.1,5.2,24.89,24.89,0,0,1-8.7,1.6,22.47,22.47,0,0,1-5.8-.7,12.8,12.8,0,0,1-4.7-2.2,11.2,11.2,0,0,1-3.2-3.9,12.76,12.76,0,0,1-1.2-5.8,12.67,12.67,0,0,1,1.3-6.2,11.71,11.71,0,0,1,3.4-3.9,14.79,14.79,0,0,1,4.9-2.3,50.71,50.71,0,0,1,5.6-1.3c2-.4,3.9-.7,5.8-.9a29.38,29.38,0,0,0,4.8-.9,8.47,8.47,0,0,0,3.3-1.6,4.08,4.08,0,0,0,1.2-3.2,7.51,7.51,0,0,0-.9-3.9,7.22,7.22,0,0,0-2.3-2.3,6.71,6.71,0,0,0-3.2-1,21.59,21.59,0,0,0-3.5-.3,15.52,15.52,0,0,0-7.8,1.8c-2.1,1.2-3.2,3.4-3.4,6.7h-7.4a16,16,0,0,1,1.7-7,11.65,11.65,0,0,1,4.2-4.6,18.59,18.59,0,0,1,5.9-2.6,32.39,32.39,0,0,1,7.2-.8,40.32,40.32,0,0,1,6,.4,15.64,15.64,0,0,1,5.4,1.8,10.15,10.15,0,0,1,3.9,3.8,11.75,11.75,0,0,1,1.5,6.3v23a17.44,17.44,0,0,0,.3,3.8c.2.8.9,1.2,2,1.2a11.15,11.15,0,0,0,2.3-.3v5.8ZM600,41.7a8.51,8.51,0,0,1-3.6,1.5c-1.5.3-3.1.6-4.7.8s-3.3.4-5,.7a24.38,24.38,0,0,0-4.5,1.2,8,8,0,0,0-3.2,2.5,7.19,7.19,0,0,0-1.3,4.4,6.17,6.17,0,0,0,.7,3.1,6.06,6.06,0,0,0,1.9,2A8.08,8.08,0,0,0,583,59a16.86,16.86,0,0,0,3.3.3,16.45,16.45,0,0,0,6.2-1,14.17,14.17,0,0,0,4.2-2.5,9.31,9.31,0,0,0,2.4-3.3,8.8,8.8,0,0,0,.8-3.3V41.7Z" style="fill:#fff"/></svg>
